<svg xmlns="http://www.w3.org/2000/svg" width="1024" height="1024" aria-label="Lion Wallet" viewBox="0 0 1024 1024"><defs><linearGradient id="lw-bg" x1="487.343" x2="536.116" y1="1035.153" y2="-11.772" gradientUnits="userSpaceOnUse"><stop offset="0" stop-color="#261911"/><stop offset="1" stop-color="#715a44"/></linearGradient></defs><path fill="url(#lw-bg)" d="M0 0h1024v1024H0z"/><path fill="#f0cb95" d="M292.335 250.606c-10.422-2.066-21.949-3.298-32.442-5.141-2.868-.504-10.756-1.404-13.181-2.201 2.097-1.978 44.073-17.465 50.076-19.71l97.13-36.961 27.026-10.324c10.073-3.927 12.044-6.158 23.117-5.591 50.55 2.587 101.311 4.214 151.767 7.597 1.186.079 12.685 7.84 14.385 8.965l30.768 20.553a4808 4808 0 0 1 50.63 33.658c6.875 4.603 14.942 9.532 21.477 14.382-3.655 25.735-7.571 42.112-18.585 66.2 12.882 11.154 25.302 23.05 38.011 34.411 3.033 2.711 6.783 5.939 9.546 8.865l1.053 36.117a1521 1521 0 0 1 87.263 86.577c2.683 2.865 20.037 21.258 21.669 23.841-2.333 6.566-44.58 72.046-47.507 73.801-1.642 4.625-3.336 9.723-5.196 14.225-40.244 16.383-81.902 29.186-123.798 40.504-4.45 1.202-24.01 7.107-27.266 7.282 1.48 10.472 5.733 25.277 8.281 36.004l18.935 78.269a5506 5506 0 0 0-61.174 81.162c-9.311 12.454-19.683 27.327-29.543 39.081l-4.785-2.406c-8.003-3.263-18.253-8.729-26.125-12.652l-34.125-16.637-116.186-57.006a2351 2351 0 0 1-28.883-14.373c-6.253-3.188-13.832-7.298-20.193-9.997-5.256-2.229-14.235-4.244-20.011-5.751l-31.038-8.036-89.631-22.911c-2.01-4.94-4.209-12.636-5.853-17.934l-10.007-32.553c-11.514-37.558-22.699-75.924-34.502-113.276-4.754 5.003-12.879 14.037-16.949 19.369a1186 1186 0 0 0-.832-39.606c-.137-4.489-1.048-19.153.242-22.246 4.981-11.948 11.887-25.103 17.357-36.843l51.09-110.376c-18.9 8.096-37.891 16.793-56.813 25.02a1860 1860 0 0 0 17.949-33.803c1.858-3.543 8.978-17.555 10.746-19.535 7.625-8.539 18.975-18.229 27.525-26.294z"/><defs><linearGradient id="lw-g1" x1="646.82" x2="678.529" y1="648.167" y2="302.167" gradientUnits="userSpaceOnUse"><stop offset="0" stop-color="#f7deb8"/><stop offset="1" stop-color="#fff8e5"/></linearGradient></defs><path fill="url(#lw-g1)" d="M577.461 292.307c9.945 1.467 89.498 16.775 92.731 16.102 1.66-.346 3.05-2.61 4.064-3.923 7.416 5.272 13.105 12.17 20.247 17.547 12.882 11.154 25.302 23.05 38.011 34.411 3.033 2.711 6.783 5.939 9.546 8.865l1.053 36.117a1521 1521 0 0 1 87.263 86.577c2.683 2.865 20.037 21.258 21.669 23.841-2.333 6.566-44.58 72.046-47.507 73.801-1.642 4.625-3.336 9.723-5.196 14.225-40.244 16.383-81.902 29.186-123.798 40.504-4.45 1.202-24.01 7.107-27.266 7.282 1.48 10.472 5.733 25.277 8.281 36.004l18.935 78.269a5506 5506 0 0 0-61.174 81.162c-9.311 12.454-19.683 27.327-29.543 39.081l-4.785-2.406.351-2.21c-5.353-7.651-23.977-24.111-30.999-31.013l-69.799-69.262a4418 4418 0 0 1-34.333-33.842c-3.388-3.356-18.526-17.208-19.445-20.593l.351-.787c-1.908-3.84-11.844-33.81-10.854-36.477 11.795-31.779 21.629-65.12 33.725-96.747 9.119-27.679 19.75-55.54 29.071-83.125 6.173-18.27 11.581-36.432 18.176-54.877l.856-.203c1.088-2.531 4.104-48.199 4.408-54.614-7.757.989-17.367 3.581-24.893 5.77 14.044-15.673 28.648-31.151 43.013-46.542 19.335-20.715 38.401-42.396 57.841-62.937"/><path fill="#dc994e" d="M448.989 588.835c9.119-27.679 19.75-55.54 29.071-83.125 6.173-18.27 11.581-36.432 18.176-54.877l.856-.203c-1.788 21.394-3.028 42.862-4.67 64.269-.32 4.18-.78 8.472-.63 12.65.107 2.221 1.583 4.662 2.419 6.708 7.651 15.763 16.151 31.149 24.044 46.788a2255 2255 0 0 0 16.615 32.667c3.049 5.936 6.294 12.732 9.742 18.341a4387 4387 0 0 0 61.618 10.943c9.252 1.629 31.45 5.867 40.254 6.127l1.794-1.467c1.48 10.472 5.733 25.277 8.281 36.004l18.935 78.269a5506 5506 0 0 0-61.174 81.162c-9.311 12.454-19.683 27.327-29.543 39.081l-4.785-2.406.351-2.21c-5.353-7.651-23.977-24.111-30.999-31.013l-69.799-69.262a4418 4418 0 0 1-34.333-33.842c-3.388-3.356-18.526-17.208-19.445-20.593l.351-.787c-1.908-3.84-11.844-33.81-10.854-36.477 11.795-31.779 21.629-65.12 33.725-96.747"/><path fill="#e9af69" d="M448.989 588.835c4.665 8.36 8.728 12.863 14.275 20.419l25.773 34.795 65.274 89.759c7.013 9.599 19.284 25.568 24.923 36.169 1.127 2.118.893 20.351 1.076 24.446l3.926 87.264c-1.171-1.25-2.695-2.983-3.893-4.131-5.353-7.651-23.977-24.111-30.999-31.013l-69.799-69.262a4418 4418 0 0 1-34.333-33.842c-3.388-3.356-18.526-17.208-19.445-20.593l.351-.787c-1.908-3.84-11.844-33.81-10.854-36.477 11.795-31.779 21.629-65.12 33.725-96.747"/><path fill="#7a6249" d="M759.557 517.622c13.665-.035 32.854-1.937 46.941-2.845 12.621-.814 33.587-1.212 45.547-2.933-2.333 6.566-44.58 72.046-47.507 73.801.895-4.053 3.501-14.341 2.691-17.933-3.996-17.705-15.623-24.849-28.409-34.969a1226 1226 0 0 0-19.263-15.121"/><path fill="#533e26" d="m651.514 392.612.54.063c1.845 2.598 10.019 21.652 11.623 25.724 4.517 11.468 11.821 25.963 15.584 37.301-6.955-5.909-15.137-14.325-21.605-20.801a124 124 0 0 1-16.14 1.131c-19.754.065-22.025-7.532-35.148-20.106-3.878-3.716-8.844-6.394-13.548-8.891 18.346-5.373 39.839-9.92 58.694-14.421"/><path fill="#7a6249" d="M632.219 404.141a8.893 8.893 0 1 1 3.355 17.467 8.893 8.893 0 0 1-3.355-17.467"/><defs><linearGradient id="lw-g2" x1="632.617" x2="237.071" y1="816.211" y2="482.088" gradientUnits="userSpaceOnUse"><stop offset="0" stop-color="#e19444"/><stop offset="1" stop-color="#eab675"/></linearGradient></defs><path fill="url(#lw-g2)" d="M163.438 568.64c2.712-4.489 13.406-13.612 17.231-17.815 4.558-5.25 8.88-10.634 13.6-15.748 21.334-23.04 44.162-44.5 65.947-67.083 8.201-8.503 16.483-16.291 24.423-25.152 6.653-7.424 15.01-14.357 21.679-21.936 6.009-6.83 15.617-19.775 24.202-22.784-.464-3.751 6.582-12.038 9.106-14.944 13.683-15.744 25.366-36.443 39.713-51.234 8.923 22.377 31.685 54.509 48.547 71.883a1782 1782 0 0 1-47.178 45.164 1401 1401 0 0 1-32.657 30.079c-.451 11.179-2.704 24.968-4.004 36.39l-8.259 72.329c-1.009 8.745-3.904 29.843-3.727 37.85 30.699 33.082 62.461 64.591 93.706 97.207.919 3.385 16.057 17.237 19.445 20.593a4418 4418 0 0 0 34.333 33.842l69.799 69.262c7.022 6.902 25.646 23.362 30.999 31.013l-.351 2.21c-8.003-3.263-18.253-8.729-26.125-12.652l-34.125-16.637-116.186-57.006a2351 2351 0 0 1-28.883-14.373c-6.253-3.188-13.832-7.298-20.193-9.997-5.256-2.229-14.235-4.244-20.011-5.751l-31.038-8.036-89.631-22.911c-2.01-4.94-4.209-12.636-5.853-17.934l-10.007-32.553c-11.514-37.558-22.699-75.924-34.502-113.276"/><path fill="#fefcf8" d="M436.749 250.174c25.358 7.78 62.685 31.686 82.71 49.081-4.892 4.693-12.484 16.524-18.437 23.092l.724.693c-1.707 6.972-60.085 70.538-67.923 74.278-1.558 1.629-4.785 4.842-5.937 6.509-16.862-17.374-39.624-49.506-48.547-71.883-1.884-4.351-7.626-17.923-5.435-21.721 13.507-23.398 39.187-49.132 62.845-60.049"/><path fill="#dc994e" d="M436.57 289.561c20.898 6.567 46.207 20.91 64.452 32.786l.724.693c-1.707 6.972-60.085 70.538-67.923 74.278-11.024-25.17-19.519-41.528-25.656-69.545 5.759-12.029 19.444-28.508 28.403-38.212"/><path fill="#f0cb95" d="M788.676 612.479c1.781.706 10.579 14.729 12.101 17.209-7.526 17.918-14.313 42.728-22.581 59.827-14.861 10.432-21.109 12.529-38.467 15.65-13.659 2.456-29.599 4.753-42.882 7.991a1034 1034 0 0 1-5.864-18.786c-1.217-5.166-8.667-12.438-12.346-16.695-6.648-7.692-13.31-15.761-20.235-23.182 11.351-4.152 26.371-7.759 38.219-11.441 29.922-9.3 63.4-18.237 92.055-30.573"/></svg>