<svg xmlns="http://www.w3.org/2000/svg" viewBox="0 0 512 512">
  <defs>
    <linearGradient id="bg" x1="0" y1="0" x2="1" y2="1">
      <stop offset="0%" stop-color="#1a1a2e"/>
      <stop offset="100%" stop-color="#16213e"/>
    </linearGradient>
  </defs>
  <rect width="512" height="512" rx="112" fill="url(#bg)"/>
  <!-- Shield outline -->
  <path d="M256 88 L400 160 L400 296 Q400 376 256 432 Q112 376 112 296 L112 160 Z"
        fill="none" stroke="rgba(255,255,255,0.15)" stroke-width="16"/>
  <!-- Ethereum diamond -->
  <g transform="translate(256,248)">
    <path d="M0 -120 L72 0 L0 40 L-72 0 Z" fill="#fff" opacity="0.95"/>
    <path d="M0 40 L72 0 L0 -40 L-72 0 Z" fill="#fff" opacity="0.7"/>
    <path d="M0 60 L72 -10 L0 20 L-72 -10 Z" fill="#fff" opacity="0.95"/>
    <path d="M0 20 L72 -10 L0 -40 L-72 -10 Z" fill="#fff" opacity="0.7"/>
    <!-- Divider lines for facets -->
    <line x1="-72" y1="0" x2="0" y2="-120" stroke="rgba(26,26,46,0.25)" stroke-width="1.5"/>
    <line x1="72" y1="0" x2="0" y2="-120" stroke="rgba(26,26,46,0.15)" stroke-width="1.5"/>
    <line x1="-72" y1="-10" x2="0" y2="60" stroke="rgba(26,26,46,0.25)" stroke-width="1.5"/>
    <line x1="72" y1="-10" x2="0" y2="60" stroke="rgba(26,26,46,0.15)" stroke-width="1.5"/>
  </g>
</svg>
