<svg xmlns="http://www.w3.org/2000/svg" width="1024" height="1024" viewBox="0 0 1024 1024" role="img" aria-label="Lion Wallet"><defs><linearGradient id="lw-bg" gradientUnits="userSpaceOnUse" x1="487.34299" y1="1035.1534" x2="536.11591" y2="-11.771845"><stop offset="0" stop-color="#261911"/><stop offset="1" stop-color="#715A44"/></linearGradient></defs><path fill="url(#lw-bg)" d="M0 0L211.052 0L814.312 0L1024 0L1024 198.661L1024 819.402L1024 1024L810.368 1024L211.559 1024L0 1024L0 815.453L0 199.242L0 0Z"/><path fill="#F0CB95" d="M292.335 250.606C281.913 248.54 270.386 247.308 259.893 245.465C257.025 244.961 249.137 244.061 246.712 243.264C248.809 241.286 290.785 225.799 296.788 223.554L393.918 186.593L420.944 176.269C431.017 172.342 432.988 170.111 444.061 170.678C494.611 173.265 545.372 174.892 595.828 178.275C597.014 178.354 608.513 186.115 610.213 187.24L640.981 207.793C657.928 218.905 674.805 230.125 691.611 241.451C698.486 246.054 706.553 250.983 713.088 255.833C709.433 281.568 705.517 297.945 694.503 322.033C707.385 333.187 719.805 345.083 732.514 356.444C735.547 359.155 739.297 362.383 742.06 365.309L743.113 401.426C773.355 429.097 802.467 457.98 830.376 488.003C833.059 490.868 850.413 509.261 852.045 511.844C849.712 518.41 807.465 583.89 804.538 585.645C802.896 590.27 801.202 595.368 799.342 599.87C759.098 616.253 717.44 629.056 675.544 640.374C671.094 641.576 651.534 647.481 648.278 647.656C649.758 658.128 654.011 672.933 656.559 683.66L675.494 761.929C654.854 788.794 634.461 815.849 614.32 843.091C605.009 855.545 594.637 870.418 584.777 882.172L579.992 879.766C571.989 876.503 561.739 871.037 553.867 867.114L519.742 850.477L403.556 793.471C393.895 788.746 384.268 783.955 374.673 779.098C368.42 775.91 360.841 771.8 354.48 769.101C349.224 766.872 340.245 764.857 334.469 763.35L303.431 755.314L213.8 732.403C211.79 727.463 209.591 719.767 207.947 714.469L197.94 681.916C186.426 644.358 175.241 605.992 163.438 568.64C158.684 573.643 150.559 582.677 146.489 588.009C146.432 574.804 146.155 561.6 145.657 548.403C145.52 543.914 144.609 529.25 145.899 526.157C150.88 514.209 157.786 501.054 163.256 489.314L214.346 378.938C195.446 387.034 176.455 395.731 157.533 403.958C163.632 392.752 169.615 381.484 175.482 370.155C177.34 366.612 184.46 352.6 186.228 350.62C193.853 342.081 205.203 332.391 213.753 324.326L292.335 250.606Z"/><defs><linearGradient id="lw-g1" gradientUnits="userSpaceOnUse" x1="646.82001" y1="648.16681" x2="678.52936" y2="302.16727"><stop offset="0" stop-color="#F7DEB8"/><stop offset="1" stop-color="#FFF8E5"/></linearGradient></defs><path fill="url(#lw-g1)" d="M577.461 292.307C587.406 293.774 666.959 309.082 670.192 308.409C671.852 308.063 673.242 305.799 674.256 304.486C681.672 309.758 687.361 316.656 694.503 322.033C707.385 333.187 719.805 345.083 732.514 356.444C735.547 359.155 739.297 362.383 742.06 365.309L743.113 401.426C773.355 429.097 802.467 457.98 830.376 488.003C833.059 490.868 850.413 509.261 852.045 511.844C849.712 518.41 807.465 583.89 804.538 585.645C802.896 590.27 801.202 595.368 799.342 599.87C759.098 616.253 717.44 629.056 675.544 640.374C671.094 641.576 651.534 647.481 648.278 647.656C649.758 658.128 654.011 672.933 656.559 683.66L675.494 761.929C654.854 788.794 634.461 815.849 614.32 843.091C605.009 855.545 594.637 870.418 584.777 882.172L579.992 879.766L580.343 877.556C574.99 869.905 556.366 853.445 549.344 846.543L479.545 777.281C468.039 766.063 456.595 754.782 445.212 743.439C441.824 740.083 426.686 726.231 425.767 722.846L426.118 722.059C424.21 718.219 414.274 688.249 415.264 685.582C427.059 653.803 436.893 620.462 448.989 588.835C458.108 561.156 468.739 533.295 478.06 505.71C484.233 487.44 489.641 469.278 496.236 450.833L497.092 450.63C498.18 448.099 501.196 402.431 501.5 396.016C493.743 397.005 484.133 399.597 476.607 401.786C490.651 386.113 505.255 370.635 519.62 355.244C538.955 334.529 558.021 312.848 577.461 292.307Z"/><path fill="#DC994E" d="M448.989 588.835C458.108 561.156 468.739 533.295 478.06 505.71C484.233 487.44 489.641 469.278 496.236 450.833L497.092 450.63C495.304 472.024 494.064 493.492 492.422 514.899C492.102 519.079 491.642 523.371 491.792 527.549C491.899 529.77 493.375 532.211 494.211 534.257C501.862 550.02 510.362 565.406 518.255 581.045C523.705 591.979 529.243 602.868 534.87 613.712C537.919 619.648 541.164 626.444 544.612 632.053C565.125 635.847 585.665 639.495 606.23 642.996C615.482 644.625 637.68 648.863 646.484 649.123L648.278 647.656C649.758 658.128 654.011 672.933 656.559 683.66L675.494 761.929C654.854 788.794 634.461 815.849 614.32 843.091C605.009 855.545 594.637 870.418 584.777 882.172L579.992 879.766L580.343 877.556C574.99 869.905 556.366 853.445 549.344 846.543L479.545 777.281C468.039 766.063 456.595 754.782 445.212 743.439C441.824 740.083 426.686 726.231 425.767 722.846L426.118 722.059C424.21 718.219 414.274 688.249 415.264 685.582C427.059 653.803 436.893 620.462 448.989 588.835Z"/><path fill="#E9AF69" d="M448.989 588.835C453.654 597.195 457.717 601.698 463.264 609.254L489.037 644.049L554.311 733.808C561.324 743.407 573.595 759.376 579.234 769.977C580.361 772.095 580.127 790.328 580.31 794.423L584.236 881.687C583.065 880.437 581.541 878.704 580.343 877.556C574.99 869.905 556.366 853.445 549.344 846.543L479.545 777.281C468.039 766.063 456.595 754.782 445.212 743.439C441.824 740.083 426.686 726.231 425.767 722.846L426.118 722.059C424.21 718.219 414.274 688.249 415.264 685.582C427.059 653.803 436.893 620.462 448.989 588.835Z"/><path fill="#7A6249" d="M759.557 517.622C773.222 517.587 792.411 515.685 806.498 514.777C819.119 513.963 840.085 513.565 852.045 511.844C849.712 518.41 807.465 583.89 804.538 585.645C805.433 581.592 808.039 571.304 807.229 567.712C803.233 550.007 791.606 542.863 778.82 532.743C772.45 527.639 766.028 522.598 759.557 517.622Z"/><path fill="#533E26" d="M651.514 392.612L652.054 392.675C653.899 395.273 662.073 414.327 663.677 418.399C668.194 429.867 675.498 444.362 679.261 455.7C672.306 449.791 664.124 441.375 657.656 434.899C652.306 435.626 646.915 436.004 641.516 436.03C621.762 436.095 619.491 428.498 606.368 415.924C602.49 412.208 597.524 409.53 592.82 407.033C611.166 401.66 632.659 397.113 651.514 392.612Z"/><path fill="#7A6249" d="M632.219 404.141C634.761 403.653 637.389 404.297 639.418 405.903C641.447 407.51 642.675 409.921 642.782 412.507C642.953 416.65 640.24 420.361 636.24 421.454C633.096 422.313 629.734 421.384 627.478 419.032C625.222 416.68 624.433 413.282 625.421 410.177C626.41 407.071 629.019 404.755 632.219 404.141Z"/><defs><linearGradient id="lw-g2" gradientUnits="userSpaceOnUse" x1="632.61664" y1="816.21051" x2="237.07071" y2="482.0882"><stop offset="0" stop-color="#E19444"/><stop offset="1" stop-color="#EAB675"/></linearGradient></defs><path fill="url(#lw-g2)" d="M163.438 568.64C166.15 564.151 176.844 555.028 180.669 550.825C185.227 545.575 189.549 540.191 194.269 535.077C215.603 512.037 238.431 490.577 260.216 467.994C268.417 459.491 276.699 451.703 284.639 442.842C291.292 435.418 299.649 428.485 306.318 420.906C312.327 414.076 321.935 401.131 330.52 398.122C330.056 394.371 337.102 386.084 339.626 383.178C353.309 367.434 364.992 346.735 379.339 331.944C388.262 354.321 411.024 386.453 427.886 403.827C412.437 419.169 396.708 434.226 380.708 448.991C369.982 459.189 359.095 469.217 348.051 479.07C347.6 490.249 345.347 504.038 344.047 515.46L335.788 587.789C334.779 596.534 331.884 617.632 332.061 625.639C362.76 658.721 394.522 690.23 425.767 722.846C426.686 726.231 441.824 740.083 445.212 743.439C456.595 754.782 468.039 766.063 479.545 777.281L549.344 846.543C556.366 853.445 574.99 869.905 580.343 877.556L579.992 879.766C571.989 876.503 561.739 871.037 553.867 867.114L519.742 850.477L403.556 793.471C393.895 788.746 384.268 783.955 374.673 779.098C368.42 775.91 360.841 771.8 354.48 769.101C349.224 766.872 340.245 764.857 334.469 763.35L303.431 755.314L213.8 732.403C211.79 727.463 209.591 719.767 207.947 714.469L197.94 681.916C186.426 644.358 175.241 605.992 163.438 568.64Z"/><path fill="#FEFCF8" d="M436.749 250.174C462.107 257.954 499.434 281.86 519.459 299.255C514.567 303.948 506.975 315.779 501.022 322.347L501.746 323.04C500.039 330.012 441.661 393.578 433.823 397.318C432.265 398.947 429.038 402.16 427.886 403.827C411.024 386.453 388.262 354.321 379.339 331.944C377.455 327.593 371.713 314.021 373.904 310.223C387.411 286.825 413.091 261.091 436.749 250.174Z"/><path fill="#DC994E" d="M436.57 289.561C457.468 296.128 482.777 310.471 501.022 322.347L501.746 323.04C500.039 330.012 441.661 393.578 433.823 397.318C422.799 372.148 414.304 355.79 408.167 327.773C413.926 315.744 427.611 299.265 436.57 289.561Z"/><path fill="#F0CB95" d="M788.676 612.479C790.457 613.185 799.255 627.208 800.777 629.688C793.251 647.606 786.464 672.416 778.196 689.515C763.335 699.947 757.087 702.044 739.729 705.165C726.07 707.621 710.13 709.918 696.847 713.156C694.833 706.913 692.878 700.651 690.983 694.37C689.766 689.204 682.316 681.932 678.637 677.675C671.989 669.983 665.327 661.914 658.402 654.493C669.753 650.341 684.773 646.734 696.621 643.052C726.543 633.752 760.021 624.815 788.676 612.479Z"/></svg>