<svg xmlns="http://www.w3.org/2000/svg" xml:space="preserve" width="1000" height="1000" style="fill-rule:evenodd;clip-rule:evenodd;stroke-linejoin:round;stroke-miterlimit:2" viewBox="0 0 9167 9167"><path d="M6911.791 7435.167c-69.958 227.083-202.833 407-356.083 536.625-336.583 284.708-783.042 334-1172.5 129.458-266.833-140.167-521.625-395.5-799.875-386.792-278.25-8.708-533.021 246.625-799.888 386.792-389.429 204.542-835.9 155.25-1172.5-129.458-153.225-129.625-286.125-309.542-356.067-536.625s-70.733-504.375 22.204-730.75c81.367-198.208 224.138-339.75 371.438-447.458 147.333-107.667 306.15-186.167 446.917-308.167 533.079-462.083 679.204-1317.833 1487.896-1317.833 808.708 0 954.833 855.75 1487.917 1317.833 140.75 122 299.583 200.5 446.917 308.167 147.292 107.708 290.042 249.25 371.417 447.458 92.959 226.375 92.125 503.667 22.208 730.75ZM4338.125 3285.833c8.079 475.329-275.142 890.542-712.992 931.292-437.846 40.75-840.071-434.083-892.871-1001.3-55.791-599.325 388.108-1487.004 828.167-1480.437 499.717 7.454 767.483 954.075 777.696 1550.446ZM3643.729 1330.929c3.15 42.113 4.142 85.729-10.867 125.2-15.046 39.471-49.55 74.18-91.638 77.63-43.383 3.504-84.046-27.208-104.062-65.888-20.017-38.675-23.042-83.704-22.392-127.275 2.058-134.154 36.833-267.388 99.013-386.188 10.254-19.604 38.958-18.071 46.792 2.621 45.35 119.8 73.529 246.133 83.154 373.9ZM2736.746 4515.542c80.192 414.958-103.979 822.084-481.096 925.083s-802.317-250.917-935.758-739.458c-141-516.208 111.204-1361.721 497.533-1423.629 438.704-70.304 818.708 717.396 919.321 1238.004ZM1828.175 2910.579c9.238 36.392 16.813 74.433 9.738 111.3-7.104 36.871-31.983 72.571-68.304 82.063-37.446 9.737-77.775-10.904-101.25-41.692-23.471-30.787-33.042-69.75-39.175-108-18.821-117.788-8.854-239.792 27.325-353.371 5.962-18.746 31.333-21.817 41.371-4.904 58.129 97.925 102.225 204.217 130.296 314.604ZM4828.583 3285.833c-8.125 475.329 275.083 890.542 712.958 931.292 437.834 40.75 840.083-434.083 892.875-1001.3 55.792-599.325-388.125-1487.004-828.167-1480.437-499.75 7.454-767.5 954.075-777.667 1550.446ZM5522.958 1330.929c-3.167 42.113-4.167 85.729 10.833 125.2 15.042 39.471 49.583 74.18 91.667 77.63 43.375 3.504 84.042-27.208 104.042-65.888 20.042-38.675 23.042-83.704 22.417-127.275-2.083-134.154-36.875-267.388-99.042-386.188-10.25-19.604-38.958-18.071-46.792 2.621-45.333 119.8-73.5 246.133-83.125 373.9ZM6429.917 4515.542c-80.167 414.958 104 822.084 481.083 925.083 377.125 103 802.333-250.917 935.792-739.458 141-516.208-111.208-1361.721-497.542-1423.629-438.708-70.304-818.708 717.396-919.333 1238.004ZM7338.5 2910.579c-9.25 36.392-16.833 74.433-9.75 111.3 7.125 36.871 32 72.571 68.292 82.063 37.458 9.737 77.791-10.904 101.25-41.692 23.5-30.787 33.042-69.75 39.208-108 18.792-117.788 8.833-239.792-27.334-353.371-5.958-18.746-31.333-21.817-41.375-4.904-58.125 97.925-102.25 204.217-130.292 314.604Z" style="fill:#f2e6d8;fill-rule:nonzero;stroke:#00f;stroke-width:2.5;stroke-opacity:.01"/></svg>